<svg width="35" height="35" viewBox="0 0 35 35" fill="none" xmlns="http://www.w3.org/2000/svg">
<g filter="url(#filter0_d_1_38)">
<path d="M17 1C8.89591 1 3 6.89811 3 15C3 23.1019 8.89591 30 17 30C25.1041 30 32 23.1019 32 15C32 6.89811 25.1041 1 17 1ZM22 15L15 21C14.9608 21.0282 15.0482 20.9964 15 21C14.9518 21.0036 14.043 21.022 14 21C13.957 20.978 14.0252 21.0412 14 21C13.9748 20.9588 14.0001 20.0483 14 20V10C13.9748 10.0413 13.9998 9.95162 14 10C13.9569 10.022 14.0252 9.95868 14 10C14.0431 9.97796 14.9518 9.99626 15 10C14.9608 9.97158 15.0482 10.0037 15 10L22 15C22.0338 15.0239 21.981 14.9632 22 15C22.019 15.0368 22 14.9586 22 15C22.019 14.9632 22 15.0414 22 15C22.0338 14.9761 21.981 15.0368 22 15Z" fill="#DD1B00"/>
</g>
<defs>
<filter id="filter0_d_1_38" x="0" y="0" width="35" height="35" filterUnits="userSpaceOnUse" color-interpolation-filters="sRGB">
<feFlood flood-opacity="0" result="BackgroundImageFix"/>
<feColorMatrix in="SourceAlpha" type="matrix" values="0 0 0 0 0 0 0 0 0 0 0 0 0 0 0 0 0 0 127 0" result="hardAlpha"/>
<feOffset dy="2"/>
<feGaussianBlur stdDeviation="1.5"/>
<feComposite in2="hardAlpha" operator="out"/>
<feColorMatrix type="matrix" values="0 0 0 0 0 0 0 0 0 0 0 0 0 0 0 0 0 0 0.2 0"/>
<feBlend mode="normal" in2="BackgroundImageFix" result="effect1_dropShadow_1_38"/>
<feBlend mode="normal" in="SourceGraphic" in2="effect1_dropShadow_1_38" result="shape"/>
</filter>
</defs>
</svg>
